<svg width="11" height="13" viewBox="0 0 11 13" fill="none" xmlns="http://www.w3.org/2000/svg">
<mask id="path-1-inside-1_24_63" fill="white">
<path fill-rule="evenodd" clip-rule="evenodd" d="M2.80007 10.5703C5.97017 10.5703 8.54005 8.00044 8.54005 4.83034C8.54005 2.80304 7.48906 1.02122 5.90221 0C8.79749 0.49912 11 3.02251 11 6.06033C11 9.45687 8.2466 12.2103 4.85006 12.2103C2.87957 12.2103 1.12553 11.2836 0 9.84221C0.828284 10.306 1.7833 10.5703 2.80007 10.5703Z"/>
</mask>
<path d="M5.90221 0L6.07209 -0.985464L5.36104 0.840913L5.90221 0ZM0 9.84221L0.488527 8.96966L-0.788171 10.4577L0 9.84221ZM7.54005 4.83034C7.54005 7.44816 5.41789 9.57032 2.80007 9.57032V11.5703C6.52246 11.5703 9.54005 8.55273 9.54005 4.83034H7.54005ZM5.36104 0.840913C6.674 1.68587 7.54005 3.15728 7.54005 4.83034H9.54005C9.54005 2.44881 8.30411 0.356564 6.44338 -0.840913L5.36104 0.840913ZM5.73232 0.985464C8.1561 1.4033 10 3.51748 10 6.06033H12C12 2.52754 9.43887 -0.405062 6.07209 -0.985464L5.73232 0.985464ZM10 6.06033C10 8.90459 7.69432 11.2103 4.85006 11.2103V13.2103C8.79889 13.2103 12 10.0092 12 6.06033H10ZM4.85006 11.2103C3.2005 11.2103 1.73235 10.4359 0.788171 9.22675L-0.788171 10.4577C0.518708 12.1313 2.55863 13.2103 4.85006 13.2103V11.2103ZM2.80007 9.57032C1.95874 9.57032 1.17141 9.352 0.488527 8.96966L-0.488527 10.7148C0.485156 11.2599 1.60787 11.5703 2.80007 11.5703V9.57032Z" fill="#E45826" mask="url(#path-1-inside-1_24_63)"/>
</svg>
